<?xml version="1.0" standalone="no"?><!DOCTYPE svg PUBLIC "-//W3C//DTD SVG 1.1//EN" "http://www.w3.org/Graphics/SVG/1.1/DTD/svg11.dtd"><svg t="1628816886997" class="icon" viewBox="0 0 2426 1024" version="1.1" xmlns="http://www.w3.org/2000/svg" p-id="9599" width="947.65625" height="400" xmlns:xlink="http://www.w3.org/1999/xlink"><defs><style type="text/css"></style></defs><path d="M2103.933 725.405v103.26c0 53.352-36.141 98.098-86.05 110.145 250.406 7.745 408.739 18.931 408.739 30.978 0 22.373-542.978 41.304-1213.311 41.304S0 993.022 0 969.788c0-14.628 232.336-27.536 580.84-35.28-42.164-16.35-72.282-57.654-72.282-105.842V725.405H312.363c-9.466 0-18.931-1.721-27.536-4.302-55.933-6.885-99.819-54.212-99.819-112.727V271.92c0-62.816 50.77-113.586 113.587-113.586s113.587 50.77 113.587 113.586V546.42h96.376V415.624c0-62.817 50.77-113.587 113.587-113.587 62.816 0 113.586 50.77 113.586 113.587V546.42h37.862c49.049 0 89.493 39.583 89.493 89.493s-39.583 89.492-89.493 89.492h-37.862v103.26c0 46.468-28.397 86.911-67.98 104.122a34989.79 34989.79 0 0 1 546.42-4.303c279.664 0 537.816 3.442 742.616 8.605-46.468-14.628-80.027-57.654-80.027-108.423V725.405h-196.195c-9.466 0-18.931-1.721-27.536-4.302-55.933-6.885-99.819-54.212-99.819-112.727V271.92c0-62.816 50.77-113.586 113.587-113.586 62.816 0 113.586 50.77 113.586 113.586V546.42h96.377V415.624c0-62.817 50.77-113.587 113.586-113.587s113.587 50.77 113.587 113.587V546.42h37.862c49.049 0 89.492 39.583 89.492 89.493s-39.583 89.492-89.492 89.492h-37.862z m-887.18 98.958c-132.518 0-240.941-107.563-240.941-240.941s107.563-240.941 240.94-240.941 240.942 107.563 240.942 240.94-108.423 240.942-240.941 240.942z m0-116.168c67.98 0 123.913-55.072 123.913-123.913s-55.073-123.912-123.913-123.912-123.913 55.072-123.913 123.912 55.933 123.913 123.913 123.913z" fill="#D7E7FC" p-id="9600"></path><path d="M986.138 653.123H957.74c-7.744-29.257-10.326-60.236-7.744-92.074 12.907-147.146 142.843-256.43 290.85-243.523 7.745 0.86 12.908 7.745 12.908 14.629s-7.745 12.907-14.629 12.907c-132.518-11.186-248.686 86.05-260.733 218.568-4.302 30.978-0.86 61.096 7.745 89.493z m461.23 0c4.303-15.49 7.745-30.978 9.466-48.189 7.744-86.91-32.7-170.38-103.26-218.568-6.024-4.302-7.745-12.907-3.443-18.93 4.303-6.024 12.908-7.745 18.931-3.443 78.306 54.212 123.052 147.146 114.447 244.383-1.72 15.49-4.302 30.979-7.744 45.607h-28.397z m-122.192-314.084c6.885 3.442 10.327 11.186 6.885 18.07-3.443 6.884-11.187 10.326-18.071 6.884-10.326-4.302-20.652-8.605-31.839-11.186-6.884-1.721-11.186-9.466-9.465-17.21 1.72-6.884 9.465-11.187 17.21-9.466 12.047 3.442 23.233 7.745 35.28 12.908z m117.89 162.635h28.396c8.605 25.815 12.908 54.212 12.908 82.608 0 148.007-119.61 267.617-268.478 267.617-7.744 0-13.768-6.023-13.768-13.768s6.024-13.768 13.768-13.768c132.518 0 240.942-107.563 240.942-240.941 0.86-28.397-4.303-55.933-13.768-81.748zM1024 439.718c-30.118 40.443-48.188 90.353-48.188 144.564 0 55.933 18.93 108.424 53.351 151.45 20.652 24.954 45.607 45.606 74.003 61.095 7.745 4.302 15.49 7.744 23.234 11.186 6.884 2.582 10.326 11.187 7.745 18.071-2.582 6.884-11.187 10.326-18.071 7.745-8.605-3.442-18.07-7.745-25.815-12.047-31.839-17.21-59.375-40.444-82.609-67.98-37.862-47.328-59.374-105.842-59.374-168.66 0-72.281 28.396-138.54 75.724-186.729v41.305z m192.753 281.385c-75.724 0-137.68-61.957-137.68-137.681s61.956-137.68 137.68-137.68 137.68 61.955 137.68 137.68c0 76.585-61.956 137.68-137.68 137.68z m0-26.676c61.096 0 110.144-49.049 110.144-110.145s-49.048-110.144-110.144-110.144-110.145 49.049-110.145 110.144 49.05 110.145 110.145 110.145z m5.163-173.822l58.514 58.514c2.582 2.582 2.582 6.884 0 9.466l-58.514 58.514c-2.582 2.582-6.884 2.582-9.466 0l-58.514-58.514c-2.581-2.582-2.581-6.884 0-9.466l58.514-58.514c1.721-2.581 6.884-2.581 9.466 0z m-5.163 34.42l-29.257 29.257 29.257 29.257 29.257-29.257-29.257-29.257zM213.405 453.485v-34.42c0-7.744 6.024-13.768 13.768-13.768 7.745 0 13.768 6.024 13.768 13.769v34.42c0 7.744-6.023 13.768-13.768 13.768-7.744 0-13.768-6.024-13.768-13.768z m226.313 240.942h96.376c15.49 0 27.536 12.047 27.536 27.536v106.703c0 47.327 38.723 86.05 86.05 86.05s86.051-38.723 86.051-86.05V721.963c0-15.49 12.047-27.536 27.536-27.536h34.42c34.42 0 61.957-27.536 61.957-61.956s-27.536-61.957-61.957-61.957h-34.42c-15.489 0-27.536-12.047-27.536-27.536v-68.84c0-7.745 6.024-13.768 13.768-13.768 7.745 0 13.768 6.023 13.768 13.768v61.956c0 3.442 3.442 6.884 6.884 6.884h27.536c49.05 0 89.493 39.583 89.493 89.493s-39.583 89.492-89.493 89.492h-27.536c-3.442 0-6.884 3.442-6.884 6.884v99.819c0 62.816-50.77 113.586-113.586 113.586s-113.587-50.77-113.587-113.586v-99.819c0-3.442-3.442-6.884-6.884-6.884h-89.492c-7.745 0-13.768-6.024-13.768-13.768 0-7.745 6.023-13.768 13.768-13.768z m-55.073 26.676H322.69c-61.096-1.721-110.144-51.63-110.144-113.587V493.929c0-7.744 6.023-13.768 13.768-13.768 7.744 0 13.768 6.024 13.768 13.768v113.587c0 46.467 37.001 84.33 82.608 86.05h61.956c7.745 0 13.768 6.024 13.768 13.768 0 7.745-6.023 13.769-13.768 13.769z m378.622-302.037c0 7.744-6.023 13.768-13.768 13.768-7.744 0-13.768-6.024-13.768-13.768v-3.442c0-47.328-38.723-86.05-86.05-86.05s-86.05 38.722-86.05 86.05v127.354c0 15.49-12.048 27.536-27.537 27.536h-96.376c-15.49 0-27.536-12.047-27.536-27.536V271.92c0-47.327-38.723-86.05-86.05-86.05s-86.051 38.723-86.051 86.05v106.703c0 7.744-6.024 13.768-13.768 13.768-7.745 0-13.768-6.024-13.768-13.768V271.919c0-62.816 50.77-113.586 113.586-113.586 62.817 0 113.587 50.77 113.587 113.586v264.175c0 3.442 3.442 6.884 6.884 6.884h82.608c3.442 0 6.884-3.442 6.884-6.884v-120.47c0-62.817 50.77-113.587 113.587-113.587s113.586 50.77 113.586 113.587v3.442z m817.48 34.42v-34.42c0-7.745 6.023-13.769 13.767-13.769s13.768 6.024 13.768 13.769v34.42c0 7.744-6.023 13.768-13.768 13.768s-13.768-6.024-13.768-13.768z m227.172 240.94h96.377c15.489 0 27.536 12.048 27.536 27.537v106.703c0 47.327 38.723 86.05 86.05 86.05s86.05-38.723 86.05-86.05V721.963c0-15.49 12.048-27.536 27.537-27.536h34.42c34.42 0 61.956-27.536 61.956-61.956s-27.536-61.957-61.956-61.957h-34.42c-15.49 0-27.536-12.047-27.536-27.536v-68.84c0-7.745 6.023-13.768 13.768-13.768s13.768 6.023 13.768 13.768v61.956c0 3.442 3.442 6.884 6.884 6.884h27.536c49.049 0 89.493 39.583 89.493 89.493s-39.584 89.492-89.493 89.492h-27.536c-3.442 0-6.884 3.442-6.884 6.884v99.819c0 62.816-50.77 113.586-113.587 113.586s-113.586-50.77-113.586-113.586v-99.819c0-3.442-3.442-6.884-6.884-6.884h-89.493c-7.744 0-13.768-6.024-13.768-13.768 0-7.745 6.024-13.768 13.768-13.768z m-55.072 26.677h-61.956c-61.096-1.721-110.145-51.63-110.145-113.587V493.929c0-7.744 6.024-13.768 13.768-13.768s13.768 6.024 13.768 13.768v113.587c0 46.467 37.002 84.33 82.609 86.05h61.956c7.745 0 13.768 6.024 13.768 13.768 0 7.745-6.023 13.769-13.768 13.769z m377.761-302.037c0 7.744-6.023 13.768-13.768 13.768s-13.768-6.024-13.768-13.768v-3.442c0-47.328-38.722-86.05-86.05-86.05s-86.05 38.722-86.05 86.05v127.354c0 15.49-12.048 27.536-27.537 27.536h-95.516c-15.489 0-27.536-12.047-27.536-27.536V271.92c0-47.327-38.722-86.05-86.05-86.05s-86.05 38.723-86.05 86.05v106.703c0 7.744-6.024 13.768-13.769 13.768s-13.768-6.024-13.768-13.768V271.919c0-62.816 50.77-113.586 113.587-113.586s113.586 50.77 113.586 113.586v264.175c0 3.442 3.442 6.884 6.884 6.884h82.609c3.442 0 6.884-3.442 6.884-6.884v-120.47c0-62.817 50.77-113.587 113.586-113.587s113.587 50.77 113.587 113.587v3.442zM811.455 41.304c-11.186 0-20.652 9.466-20.652 20.652 0-11.186-9.465-20.652-20.652-20.652 11.187 0 20.652-9.465 20.652-20.652 0 11.187 8.605 20.652 20.652 20.652z m851.9 893.204c-11.187 0-20.652 9.465-20.652 20.652 0-11.187-9.466-20.652-20.653-20.652 11.187 0 20.653-9.466 20.653-20.653 0 11.187 9.465 20.653 20.652 20.653zM894.064 20.652c-11.187 0-20.652 9.466-20.652 20.652 0-11.186-9.466-20.652-20.652-20.652 11.186 0 20.652-9.465 20.652-20.652 0 11.187 8.605 20.652 20.652 20.652z m851.899 893.203c-11.187 0-20.652 9.466-20.652 20.653 0-11.187-9.466-20.653-20.652-20.653 11.186 0 20.652-9.465 20.652-20.652 0 11.187 9.465 20.652 20.652 20.652zM873.412 89.492c-22.373 0-41.304 18.071-41.304 41.305 0-22.373-18.071-41.305-41.305-41.305 22.373 0 41.305-18.07 41.305-41.304 0 22.373 18.07 41.304 41.304 41.304z m851.899 893.204c-22.373 0-41.304 18.07-41.304 41.304 0-22.373-18.07-41.304-41.304-41.304 22.373 0 41.304-18.07 41.304-41.304 0 23.233 18.93 41.304 41.304 41.304z" fill="#3789EE" p-id="9601"></path></svg>